<mxfile host="app.diagrams.net" modified="2024-01-29T17:36:26.691Z" agent="Mozilla/5.0 (Windows NT 10.0; Win64; x64) AppleWebKit/537.36 (KHTML, like Gecko) Chrome/120.0.0.0 Safari/537.36" etag="CO8-awB0O2mOlWp3vtxg" version="23.0.2" type="device">
  <diagram name="Seite-1" id="G_3OUSwJ-qq7jJb5GYhb">
    <mxGraphModel dx="865" dy="438" grid="0" gridSize="10" guides="1" tooltips="1" connect="1" arrows="1" fold="1" page="0" pageScale="1" pageWidth="1169" pageHeight="827" math="0" shadow="0">
      <root>
        <mxCell id="0" />
        <mxCell id="1" parent="0" />
        <mxCell id="r05JZGFyx2hxtFmTHdCf-9" style="edgeStyle=none;curved=1;rounded=0;orthogonalLoop=1;jettySize=auto;html=1;exitX=0.855;exitY=0.145;exitDx=0;exitDy=0;exitPerimeter=0;fontSize=12;startSize=8;endSize=8;entryX=0.855;entryY=0.855;entryDx=0;entryDy=0;entryPerimeter=0;" edge="1" parent="1" source="r05JZGFyx2hxtFmTHdCf-1" target="r05JZGFyx2hxtFmTHdCf-1">
          <mxGeometry relative="1" as="geometry">
            <mxPoint x="539.5490399528953" y="239.6470588235294" as="targetPoint" />
            <Array as="points">
              <mxPoint x="558" y="265" />
            </Array>
          </mxGeometry>
        </mxCell>
        <mxCell id="r05JZGFyx2hxtFmTHdCf-11" value="Print&lt;br&gt;Decoded&lt;br&gt;Data" style="edgeLabel;html=1;align=center;verticalAlign=middle;resizable=0;points=[];fontSize=16;" vertex="1" connectable="0" parent="r05JZGFyx2hxtFmTHdCf-9">
          <mxGeometry x="-0.5334" y="-7" relative="1" as="geometry">
            <mxPoint x="43" y="3" as="offset" />
          </mxGeometry>
        </mxCell>
        <mxCell id="r05JZGFyx2hxtFmTHdCf-1" value="AWS Lambda" style="outlineConnect=0;dashed=0;verticalLabelPosition=bottom;verticalAlign=top;align=center;html=1;shape=mxgraph.aws3.lambda_function;fillColor=#F58534;gradientColor=none;fontSize=16;" vertex="1" parent="1">
          <mxGeometry x="407" y="229" width="69" height="72" as="geometry" />
        </mxCell>
        <mxCell id="r05JZGFyx2hxtFmTHdCf-2" value="User" style="outlineConnect=0;dashed=0;verticalLabelPosition=bottom;verticalAlign=top;align=center;html=1;shape=mxgraph.aws3.user;fillColor=#D2D3D3;gradientColor=none;fontSize=16;" vertex="1" parent="1">
          <mxGeometry x="23" y="233.5" width="45" height="63" as="geometry" />
        </mxCell>
        <mxCell id="r05JZGFyx2hxtFmTHdCf-3" style="edgeStyle=none;curved=1;rounded=0;orthogonalLoop=1;jettySize=auto;html=1;exitX=0.75;exitY=0.1;exitDx=0;exitDy=0;exitPerimeter=0;entryX=0.145;entryY=0.145;entryDx=0;entryDy=0;entryPerimeter=0;fontSize=12;startSize=8;endSize=8;" edge="1" parent="1" source="r05JZGFyx2hxtFmTHdCf-2" target="r05JZGFyx2hxtFmTHdCf-1">
          <mxGeometry relative="1" as="geometry">
            <Array as="points">
              <mxPoint x="237" y="224" />
            </Array>
          </mxGeometry>
        </mxCell>
        <mxCell id="r05JZGFyx2hxtFmTHdCf-4" value="Pass Event Input" style="edgeLabel;html=1;align=center;verticalAlign=middle;resizable=0;points=[];fontSize=16;" vertex="1" connectable="0" parent="r05JZGFyx2hxtFmTHdCf-3">
          <mxGeometry x="-0.2569" y="3" relative="1" as="geometry">
            <mxPoint x="37" y="4" as="offset" />
          </mxGeometry>
        </mxCell>
        <mxCell id="r05JZGFyx2hxtFmTHdCf-7" style="edgeStyle=none;curved=1;rounded=0;orthogonalLoop=1;jettySize=auto;html=1;exitX=0.145;exitY=0.855;exitDx=0;exitDy=0;exitPerimeter=0;entryX=1;entryY=1;entryDx=0;entryDy=0;entryPerimeter=0;fontSize=12;startSize=8;endSize=8;" edge="1" parent="1" source="r05JZGFyx2hxtFmTHdCf-1" target="r05JZGFyx2hxtFmTHdCf-2">
          <mxGeometry relative="1" as="geometry">
            <Array as="points">
              <mxPoint x="230" y="311" />
            </Array>
          </mxGeometry>
        </mxCell>
        <mxCell id="r05JZGFyx2hxtFmTHdCf-8" value="Return Status Code" style="edgeLabel;html=1;align=center;verticalAlign=middle;resizable=0;points=[];fontSize=16;" vertex="1" connectable="0" parent="r05JZGFyx2hxtFmTHdCf-7">
          <mxGeometry x="-0.262" y="-1" relative="1" as="geometry">
            <mxPoint x="-59" y="-3" as="offset" />
          </mxGeometry>
        </mxCell>
      </root>
    </mxGraphModel>
  </diagram>
</mxfile>
